<svg xmlns="http://www.w3.org/2000/svg" viewBox="0 0 760 220" role="img" aria-labelledby="title desc">
  <title id="title">Pasumarthy Banquet Hall</title>
  <desc id="desc">PSR crowned gold monogram with the Pasumarthy Banquet Hall wordmark.</desc>
  <defs>
    <linearGradient id="gold" x1="0" y1="0" x2="1" y2="1">
      <stop offset="0" stop-color="#FFF1B8"/>
      <stop offset="0.3" stop-color="#E5C36A"/>
      <stop offset="0.62" stop-color="#C8952F"/>
      <stop offset="0.86" stop-color="#F0D47C"/>
      <stop offset="1" stop-color="#9B6816"/>
    </linearGradient>
    <filter id="shadow" x="-20%" y="-20%" width="140%" height="140%">
      <feDropShadow dx="0" dy="2" stdDeviation="2" flood-color="#000" flood-opacity=".32"/>
    </filter>
  </defs>

  <!-- Compact crest -->
  <g transform="translate(10 3) scale(.84)" fill="none" stroke="url(#gold)" stroke-linecap="round" stroke-linejoin="round" filter="url(#shadow)">
    <circle cx="128" cy="131" r="76" stroke-width="2.5"/>
    <circle cx="128" cy="131" r="69" stroke-width="1" opacity=".7"/>
    <path d="M104 51l7 14 9-17 8 15 8-15 9 17 7-14-4 25h-40zM109 76h38" stroke-width="2"/>
    <circle cx="104" cy="51" r="2.5" fill="url(#gold)" stroke="none"/>
    <circle cx="120" cy="48" r="2.5" fill="url(#gold)" stroke="none"/>
    <circle cx="136" cy="48" r="2.5" fill="url(#gold)" stroke="none"/>
    <circle cx="152" cy="51" r="2.5" fill="url(#gold)" stroke="none"/>
    <path d="M74 70C61 54 67 36 82 37c12 1 15 16 6 22M182 70c13-16 7-34-8-33-12 1-15 16-6 22M91 57c8-13 17-18 28-19M165 57c-8-13-17-18-28-19M111 39c7-8 13-11 17-22 4 11 10 14 17 22" stroke-width="2"/>
    <path d="M128 18l3 9-3 6-3-6z" fill="url(#gold)" stroke="none"/>
    <path d="M56 87C35 79 25 92 33 105c6 9 19 5 17-5M52 112c-20 0-27 16-17 27M56 175c-21 8-31-5-23-18M200 87c21-8 31 5 23 18-6 9-19 5-17-5M204 112c20 0 27 16 17 27M200 175c21 8 31-5 23-18" stroke-width="2.2"/>
    <path d="M76 191c-14 15-8 31 7 29 11-1 14-15 5-21M180 191c14 15 8 31-7 29-11-1-14-15-5-21M90 207c11 8 23 12 38 12s27-4 38-12" stroke-width="2"/>
    <path d="M128 214l6 10-6 14-6-14z" fill="url(#gold)" stroke="none"/>
    <text x="128" y="144" fill="url(#gold)" stroke="none" text-anchor="middle" font-family="Georgia, 'Times New Roman', serif" font-size="61" font-weight="600" letter-spacing="-4">PSR</text>
    <path d="M89 154h78" stroke-width=".8"/>
    <text x="128" y="171" fill="url(#gold)" stroke="none" text-anchor="middle" font-family="Georgia, 'Times New Roman', serif" font-size="9.5" font-weight="700" letter-spacing="2.5">BANQUET HALL</text>
  </g>

  <!-- Wordmark -->
  <g fill="url(#gold)" filter="url(#shadow)">
    <text x="245" y="96" font-family="Georgia, 'Times New Roman', serif" font-size="57" font-weight="600" letter-spacing="1">Pasumarthy</text>
    <path d="M248 113h468" stroke="url(#gold)" stroke-width="1" opacity=".65"/>
    <path d="M232 113l6-4 6 4-6 4zM720 113l6-4 6 4-6 4z"/>
    <text x="248" y="148" font-family="Georgia, 'Times New Roman', serif" font-size="20" font-weight="700" letter-spacing="8">BANQUET HALL</text>
    <text x="249" y="177" font-family="Arial, Helvetica, sans-serif" font-size="10" font-weight="600" letter-spacing="4.2" opacity=".76">KHAMMAM · TELANGANA</text>
  </g>
</svg>
